<svg xmlns="http://www.w3.org/2000/svg" xmlns:xlink="http://www.w3.org/1999/xlink" width="0" height="0" style="display:none;"><symbol viewBox="0 0 24 24" id="yy-icon-airplay"><path d="M5 17H4a2 2 0 0 1-2-2V5a2 2 0 0 1 2-2h16a2 2 0 0 1 2 2v10a2 2 0 0 1-2 2h-1"></path><polygon points="12 15 17 21 7 21 12 15"></polygon></symbol><symbol viewBox="0 0 24 24" id="yy-icon-anchor"><circle cx="12" cy="5" r="3"></circle><line x1="12" y1="22" x2="12" y2="8"></line><path d="M5 12H2a10 10 0 0 0 20 0h-3"></path></symbol><symbol viewBox="0 0 24 24" id="yy-icon-bell"><path d="M18 8A6 6 0 0 0 6 8c0 7-3 9-3 9h18s-3-2-3-9"></path><path d="M13.73 21a2 2 0 0 1-3.46 0"></path></symbol><symbol viewBox="0 0 24 24" id="yy-icon-bold"><path d="M6 4h8a4 4 0 0 1 4 4 4 4 0 0 1-4 4H6z"></path><path d="M6 12h9a4 4 0 0 1 4 4 4 4 0 0 1-4 4H6z"></path></symbol><symbol viewBox="0 0 24 24" id="yy-icon-book"><path d="M4 19.5A2.5 2.5 0 0 1 6.5 17H20"></path><path d="M6.5 2H20v20H6.5A2.5 2.5 0 0 1 4 19.5v-15A2.5 2.5 0 0 1 6.5 2z"></path></symbol></svg>